# xmcd CD database file
#
# Track frame offsets:
#	150
#	14995
#	29604
#	44736
#	59453
#	69884
#	84536
#	96698
#	111895
#	125258
#	140002
#	155847
#	168551
#	183248
#	194788
#	209445
#	224477
#	239492
#	251643
#	266449
#
# Disc length: 3749 seconds
#
# Revision: 0
# Processed by: cddbd v1.5.1PL0 Copyright (c) Steve Scherf et al.
# Submitted via: CDex 1.51
#
DISCID=470ea314
DTITLE=Ella Fitzgerald - This Is Gold (2004, cd 3/3)
DYEAR=1900
DGENRE=Jazz
TTITLE0=I've Got The World On A String
TTITLE1=Ain't Nobody's Business But My Own
TTITLE2=Give A Little, Get A Little
TTITLE3=My One And Only
TTITLE4=Who Walks In When I Walk Out
TTITLE5=I Don't Want To Take A Chance
TTITLE6=The Cheasapeake And Ohio
TTITLE7=Two Little Men In A Flying Saucer
TTITLE8=Baby Won't You Say You Love Me
TTITLE9=The Hot Canary
TTITLE10=Even As You And I
TTITLE11=There Never Was A Baby Like My Baby
TTITLE12=Someone To Watch Over Me
TTITLE13=Necessary Evil
TTITLE14=I've Got A Crush On You
TTITLE15=Baby Doll
TTITLE16=Lady Bug
TTITLE17=What Does It Take
TTITLE18=Would You Like To Take A Walk
TTITLE19=How Has This Been Going On
EXTD=
EXTT0=
EXTT1=
EXTT2=
EXTT3=
EXTT4=
EXTT5=
EXTT6=
EXTT7=
EXTT8=
EXTT9=
EXTT10=
EXTT11=
EXTT12=
EXTT13=
EXTT14=
EXTT15=
EXTT16=
EXTT17=
EXTT18=
EXTT19=
PLAYORDER=
